<svg xmlns="http://www.w3.org/2000/svg" width="16" height="16" viewBox="0 0 16 16">
  <g id="delete-basicaction-functional-outline" transform="translate(3 3)">
    <rect id="Rectangle_23094" data-name="Rectangle 23094" width="16" height="16" transform="translate(-3 -3)" fill="none"/>
    <g id="Group_241" data-name="Group 241" transform="translate(-1 -1)">
      <path id="Path_223" data-name="Path 223" d="M373.355,1810.881h-2.286v-.062a1.612,1.612,0,0,0-1.372-1.771h-3.915a1.593,1.593,0,0,0-1.367,1.7c0,.023-.005.045-.005.069v.062h-2.3a.375.375,0,1,0,0,.75h1.13v7.543a1.874,1.874,0,0,0,1.873,1.874h5.253a1.874,1.874,0,0,0,1.874-1.874v-7.543h1.116a.375.375,0,1,0,0-.75Zm-8.2-.034c0-.024,0-.048,0-.074.017-.574.339-.975.618-.975H369.7c.294,0,.624.437.624,1.021v.062h-5.161Zm6.331,8.327a1.126,1.126,0,0,1-1.124,1.125h-5.253a1.125,1.125,0,0,1-1.124-1.125v-7.535h.421v.011h6.66v-.011h.421Z" transform="translate(-361.734 -1809.048)" fill="#ff5353"/>
      <path id="Path_224" data-name="Path 224" d="M369.484,1817.487a.375.375,0,0,0-.375.375v4.654a.375.375,0,0,0,.749,0v-4.654A.375.375,0,0,0,369.484,1817.487Z" transform="translate(-365.422 -1813.268)" fill="#ff5353"/>
      <path id="Path_225" data-name="Path 225" d="M373.369,1817.487a.375.375,0,0,0-.374.375v4.654a.375.375,0,0,0,.749,0v-4.654A.375.375,0,0,0,373.369,1817.487Z" transform="translate(-367.365 -1813.268)" fill="#ff5353"/>
      <path id="Path_226" data-name="Path 226" d="M377.256,1817.487a.375.375,0,0,0-.375.375v4.654a.375.375,0,0,0,.75,0v-4.654A.375.375,0,0,0,377.256,1817.487Z" transform="translate(-369.308 -1813.268)" fill="#ff5353"/>
    </g>
  </g>
</svg>
