<svg xmlns="http://www.w3.org/2000/svg" width="10.822" height="5.902" viewBox="0 0 10.822 5.902"><defs><style>.a{fill:#3472ff;}</style></defs><g transform="translate(-1585.795 -231)"><path class="a" d="M5.418,5.9a.483.483,0,0,1-.343-.142L.142.827A.485.485,0,1,1,.827.142L5.76,5.075a.484.484,0,0,1-.343.827Z" transform="translate(1590.715 236.902) rotate(-90)"/><path class="a" d="M.484,5.889a.485.485,0,0,1-.343-.827L5.062.142a.485.485,0,0,1,.685.685L.827,5.747A.482.482,0,0,1,.484,5.889Z" transform="translate(1585.795 236.902) rotate(-90)"/></g></svg>