<svg xmlns="http://www.w3.org/2000/svg" width="13.477" height="13.477" viewBox="0 0 13.477 13.477"><defs><style>.a{fill:#2b6cff;}</style></defs><g transform="translate(-2506.847 -877.306)"><path class="a" d="M2530.547,878.5l1.061,1.061-7.087,7.087-1.061-1.061,7.087-7.087m0-1.194a.788.788,0,0,0-.559.231l-7.864,7.864a.262.262,0,0,0,0,.371l2.21,2.21a.263.263,0,0,0,.371,0l7.864-7.864a.788.788,0,0,0,0-1.114l-1.468-1.468a.784.784,0,0,0-.556-.23Z" transform="translate(-12.478 0)"/><path class="a" d="M2508.88,930.3l.655.655c-.409.188-.8.355-1.158.5.149-.361.315-.749.5-1.158m-.962,2.333h0m.772-3.91a.4.4,0,0,0-.354.226,33.679,33.679,0,0,0-1.412,3.27c-.18.477-.034.77.327.77a1.053,1.053,0,0,0,.366-.077,33.547,33.547,0,0,0,3.27-1.412.37.37,0,0,0,.136-.576l-2.111-2.111a.309.309,0,0,0-.222-.089Z" transform="translate(0 -42.203)"/></g></svg>