<svg xmlns="http://www.w3.org/2000/svg" width="16.376" height="16.856" viewBox="0 0 16.376 16.856"><defs><style>.a{fill:#6e6e6e;}</style></defs><path class="a" d="M801.259,1461.441a6.221,6.221,0,1,0-6.221-6.221A6.227,6.227,0,0,0,801.259,1461.441Zm0-11.237a5.017,5.017,0,1,1-5.017,5.017A5.022,5.022,0,0,1,801.259,1450.2Z" transform="translate(-795.038 -1449)"/><path class="a" d="M781.87,1505.031a.6.6,0,0,0,.425-1.028l-5.842-5.817a.6.6,0,1,0-.85.853l5.842,5.817A.6.6,0,0,0,781.87,1505.031Z" transform="translate(-766.096 -1488.175)"/></svg>